<svg id="visual" viewBox="0 0 900 600" width="900" height="600" xmlns="http://www.w3.org/2000/svg" xmlns:xlink="http://www.w3.org/1999/xlink" version="1.1"><rect width="900" height="600" fill="#001122"></rect><g><g transform="translate(243 134)"><path d="M68 -19.2C78.8 11 71.7 50 46.7 69.3C21.7 88.6 -21.2 88.4 -48.5 68.2C-75.9 48 -87.7 7.8 -77.1 -22.3C-66.4 -52.3 -33.2 -72.3 -2.3 -71.5C28.6 -70.8 57.2 -49.3 68 -19.2Z" fill="#F7760E"></path></g><g transform="translate(3 452)"><path d="M62.9 -17.4C71.4 5.8 61.3 38.1 40.3 52.5C19.4 67 -12.3 63.8 -30.6 48.8C-49 33.9 -54.1 7.3 -46.8 -14.2C-39.5 -35.8 -19.7 -52.4 3.7 -53.6C27.2 -54.8 54.4 -40.6 62.9 -17.4Z" fill="#F7760E"></path></g><g transform="translate(661 413)"><path d="M77.6 -22.7C87.4 4.9 73.1 42.8 48 59.5C22.9 76.2 -13 71.7 -37.3 53.5C-61.6 35.3 -74.4 3.5 -66.3 -21.9C-58.2 -47.2 -29.1 -66.1 2.4 -66.9C33.9 -67.7 67.9 -50.4 77.6 -22.7Z" fill="#F7760E"></path></g><g transform="translate(278 443)"><path d="M39.4 -10.1C46 7.3 42.6 30.7 29.3 40.4C16 50 -7.2 46 -24.3 33.5C-41.5 21.1 -52.5 0.2 -47.4 -15.2C-42.3 -30.6 -21.2 -40.6 -2.4 -39.8C16.4 -39 32.9 -27.5 39.4 -10.1Z" fill="#F7760E"></path></g><g transform="translate(719 85)"><path d="M55.7 -17.7C63.8 6.9 56.3 37 35.5 53.1C14.7 69.2 -19.4 71.4 -37 57.1C-54.6 42.9 -55.7 12.2 -46.8 -13.5C-37.9 -39.1 -18.9 -59.8 2.4 -60.6C23.8 -61.4 47.6 -42.3 55.7 -17.7Z" fill="#F7760E"></path></g><g transform="translate(879 306)"><path d="M43 -10.8C49.1 4.7 42.7 27.4 29.2 36.2C15.8 45 -4.8 40 -17.1 29.7C-29.4 19.3 -33.4 3.6 -29.2 -9.4C-25 -22.4 -12.5 -32.6 3 -33.5C18.5 -34.5 37 -26.3 43 -10.8Z" fill="#F7760E"></path></g><g transform="translate(477 242)"><path d="M54.1 -16C61.3 4.5 52.2 31.9 33.2 45.7C14.2 59.5 -14.6 59.7 -34.9 45.6C-55.2 31.4 -66.9 2.9 -59.7 -17.7C-52.4 -38.3 -26.2 -51 -1.4 -50.6C23.4 -50.1 46.9 -36.5 54.1 -16Z" fill="#F7760E"></path></g></g></svg>