<svg id="visual" viewBox="0 0 900 600" width="900" height="600" xmlns="http://www.w3.org/2000/svg" xmlns:xlink="http://www.w3.org/1999/xlink" version="1.1"><rect x="0" y="0" width="900" height="600" fill="#001220"></rect><path d="M0 389L21.5 383.5C43 378 86 367 128.8 367.8C171.7 368.7 214.3 381.3 257.2 395.8C300 410.3 343 426.7 385.8 434.2C428.7 441.7 471.3 440.3 514.2 438C557 435.7 600 432.3 642.8 418.2C685.7 404 728.3 379 771.2 380.5C814 382 857 410 878.5 424L900 438L900 601L878.5 601C857 601 814 601 771.2 601C728.3 601 685.7 601 642.8 601C600 601 557 601 514.2 601C471.3 601 428.7 601 385.8 601C343 601 300 601 257.2 601C214.3 601 171.7 601 128.8 601C86 601 43 601 21.5 601L0 601Z" fill="#f7770f"></path><path d="M0 457L21.5 452.7C43 448.3 86 439.7 128.8 432.5C171.7 425.3 214.3 419.7 257.2 427.7C300 435.7 343 457.3 385.8 462C428.7 466.7 471.3 454.3 514.2 443.7C557 433 600 424 642.8 429C685.7 434 728.3 453 771.2 459.8C814 466.7 857 461.3 878.5 458.7L900 456L900 601L878.5 601C857 601 814 601 771.2 601C728.3 601 685.7 601 642.8 601C600 601 557 601 514.2 601C471.3 601 428.7 601 385.8 601C343 601 300 601 257.2 601C214.3 601 171.7 601 128.8 601C86 601 43 601 21.5 601L0 601Z" fill="#ff4054"></path><path d="M0 465L21.5 460.8C43 456.7 86 448.3 128.8 451.2C171.7 454 214.3 468 257.2 474C300 480 343 478 385.8 471.3C428.7 464.7 471.3 453.3 514.2 457.5C557 461.7 600 481.3 642.8 481.5C685.7 481.7 728.3 462.3 771.2 463.7C814 465 857 487 878.5 498L900 509L900 601L878.5 601C857 601 814 601 771.2 601C728.3 601 685.7 601 642.8 601C600 601 557 601 514.2 601C471.3 601 428.7 601 385.8 601C343 601 300 601 257.2 601C214.3 601 171.7 601 128.8 601C86 601 43 601 21.5 601L0 601Z" fill="#ff0e95"></path><path d="M0 503L21.5 504.2C43 505.3 86 507.7 128.8 509.5C171.7 511.3 214.3 512.7 257.2 515.3C300 518 343 522 385.8 525.3C428.7 528.7 471.3 531.3 514.2 531.5C557 531.7 600 529.3 642.8 526.2C685.7 523 728.3 519 771.2 515.3C814 511.7 857 508.3 878.5 506.7L900 505L900 601L878.5 601C857 601 814 601 771.2 601C728.3 601 685.7 601 642.8 601C600 601 557 601 514.2 601C471.3 601 428.7 601 385.8 601C343 601 300 601 257.2 601C214.3 601 171.7 601 128.8 601C86 601 43 601 21.5 601L0 601Z" fill="#c43ed5"></path><path d="M0 570L21.5 563.7C43 557.3 86 544.7 128.8 543.7C171.7 542.7 214.3 553.3 257.2 552.2C300 551 343 538 385.8 534.2C428.7 530.3 471.3 535.7 514.2 538C557 540.3 600 539.7 642.8 540.7C685.7 541.7 728.3 544.3 771.2 546.5C814 548.7 857 550.3 878.5 551.2L900 552L900 601L878.5 601C857 601 814 601 771.2 601C728.3 601 685.7 601 642.8 601C600 601 557 601 514.2 601C471.3 601 428.7 601 385.8 601C343 601 300 601 257.2 601C214.3 601 171.7 601 128.8 601C86 601 43 601 21.5 601L0 601Z" fill="#0066ff"></path></svg>